<svg width="14" height="13" viewBox="0 0 14 13" fill="none" xmlns="http://www.w3.org/2000/svg">
<g id="basic/location">
<path id="Icon" d="M7.03038 10.8131C6.39247 10.269 5.80118 9.67249 5.2627 9.02981C4.45462 8.06465 3.49503 6.62728 3.49503 5.25758C3.49431 3.82705 4.35576 2.53707 5.67738 1.9896C6.99901 1.44213 8.52031 1.74508 9.53139 2.75708C10.1963 3.419 10.5687 4.3194 10.5658 5.25758C10.5658 6.62728 9.60614 8.06465 8.79806 9.02981C8.25958 9.67249 7.66829 10.269 7.03038 10.8131ZM7.03038 3.74243C6.48907 3.74243 5.98888 4.03122 5.71822 4.50001C5.44756 4.9688 5.44756 5.54637 5.71822 6.01516C5.98888 6.48395 6.48907 6.77273 7.03038 6.77273C7.86718 6.77273 8.54553 6.09438 8.54553 5.25758C8.54553 4.42079 7.86718 3.74243 7.03038 3.74243Z" fill="#79819A"/>
</g>
</svg>
