<svg width="16" height="17" viewBox="0 0 16 17" fill="none" xmlns="http://www.w3.org/2000/svg">
<g id="basic/link_02">
<path id="Icon" d="M6.19263 13.9237C4.91601 13.9237 3.76509 13.1547 3.27647 11.9752C2.78784 10.7958 3.05773 9.43823 3.9603 8.53539L5.29995 7.19574L6.19263 8.08842L4.85361 9.42744C4.37511 9.90593 4.18824 10.6034 4.36338 11.257C4.53852 11.9106 5.04907 12.4212 5.70271 12.5963C6.35635 12.7715 7.05378 12.5846 7.53227 12.1061L8.87129 10.7671L9.76396 11.6604L8.42495 12.9994C7.83409 13.5932 7.03029 13.926 6.19263 13.9237ZM6.63896 11.2134L5.74629 10.3207L10.2103 5.85673L11.103 6.74941L6.6396 11.2128L6.63896 11.2134ZM11.5499 9.87441L10.6566 8.98173L11.9957 7.64271C12.4807 7.16565 12.6725 6.4651 12.4983 5.80747C12.3241 5.14985 11.8106 4.63618 11.153 4.46181C10.4954 4.28744 9.7948 4.47915 9.31763 4.96405L7.97798 6.30307L7.0853 5.41039L8.42495 4.07074C9.65922 2.84724 11.6503 2.8516 12.8792 4.0805C14.1081 5.3094 14.1125 7.30049 12.889 8.53476L11.5499 9.87377V9.87441Z" fill="#516CF7"/>
</g>
</svg>
